<svg id="Layer_1" data-name="Layer 1" xmlns="http://www.w3.org/2000/svg" viewBox="0 0 599.83 251.76"><defs><style>.cls-1{fill:#fff;}</style></defs><title>logotyp</title><path class="cls-1" d="M1,276.82V25.06H600.85V276.82Zm367-79.77h-5.45c-1,3.6-.09,5.09,3.15,4.81a38.09,38.09,0,0,1,4.4.08c-.22.23-.44.47-.65.72a21.51,21.51,0,0,1-4.13.8c-3.57,0-3.48,1.85-2.68,4.71,2.14,0,4.1,0,6.06,0,1.28,0,2.56-.13,5-.27l-4.31-5.28c5.66-.09,5.25,3.57,4.57,7.4H326.7l-1,1.31c1.16,1.06,2.31,3,3.49,3,14.77.21,29.55.13,44.89.13-.08-1.8-.15-3.21-.21-4.62,3.56,7.41,10.49,6.41,17.24,6.22-.17,2-.29,3.36-.4,4.69l-7.8.54C419.75,270,495,286.1,551.68,243c55.2-42,63.5-122.11,17.91-174.93S453.71,18.58,417.81,43.31c9-2.84,13.21,3.59,18.2,8.56a12.5,12.5,0,0,0,1.42,1.4c3,2.15,3.63,5.07,3.61,8.67-.13,28.17-.07,56.33-.07,84.49v5.22H413V72.18h-6v79.4H378.37V78.91c-2.27,3-3.85,5-5.43,7.1V72.09h5.52L379,75l33.11-31H345.45v108h11.62c1.13,8.82,2.26,17.64,3.34,26h14.21c-.86,8.43-8,2.67-10.78,5.45,2.7,2.76,9.92-2.91,10.63,5.79H366l0,1h8.3c-.15,2.16-.26,3.81-.32,4.72ZM259.83,151.7c0-10.35-.25-20.48.11-30.59.17-5.06-.83-9-5.14-12-3.22-2.29-6-5.2-9-7.86,1.39-1.58,1.91-2.52,2.71-3,9.87-6.41,11.86-15.53,11.75-26.89-.1-10.28-2.07-18.23-10.57-24.44-2.66-2-4.85-3.45-8.31-3.42-17.16.16-34.32.07-51.48.08-1.78,0-3.57.16-5.44.24V151.62h27.85V117.13h19.79V152c8.47,0,16.43,0,24.4,0C257.42,152,258.38,151.83,259.83,151.7ZM178,97.84c0-8.66-.73-17.39.18-26,1.17-10.92-1.76-19.47-11-25.48-2.07-1.35-4.6-2.71-7-2.78-10.31-.3-20.7.54-30.95-.32-9.67-.82-16.9,1.85-22.91,9.5-2.39,3-4,5.62-3.92,9.62.19,20.32.85,40.68-.22,60.94-.59,11.27,2.29,19.66,11.37,25.93a13.08,13.08,0,0,0,6.49,2.59c9.82.28,19.72-.64,29.45.32,11,1.09,19.47-1.89,25.59-11,1.36-2,2.73-4.56,2.78-6.89C178.15,122.16,178,110,178,97.84ZM341,43.49c-16.22,0-31.89.65-47.48-.23-10.19-.57-18,1.84-24.19,10.06-2,2.65-3.4,4.85-3.38,8.3.16,20.82.7,41.67-.18,62.46-.44,10.56,1.77,18.85,10.62,24.77,2.16,1.45,4.83,3,7.29,3,17.48.26,35,.14,52.47.14h4.64V123.62H294.48V112h34.7V83.68H294.45v-12H341ZM94.58,123.42H47.72V43.83H19.49v6.22c0,24.65.54,49.32-.25,74-.34,10.53,1.66,18.92,10.57,24.85,2.17,1.44,4.84,3,7.3,3,17.65.26,35.31.15,53,.13,1.45,0,2.89-.18,4.5-.28Zm127,67.51c1.85,4.43,5.41,4.53,8.87,4.55q16.69.09,33.38,0c1.86,0,5,1.11,4.43-2.56-.16-1-2.79-2.28-4.3-2.3-12.78-.18-25.57-.12-38.35-.09A39,39,0,0,0,221.56,190.93Zm99.36-14.87c1.21-3.43.24-4.62-3-4.6q-20.42.14-40.83,0c-3.69,0-4.26,1.5-2.89,4.59Zm-101-1.83,1.19,1.59h47l.88-1.49c-1.27-.94-2.53-2.69-3.82-2.71q-20.65-.3-41.32,0C222.57,171.64,221.27,173.32,220,174.23Zm54-9.06c-1,3.42-.16,4.74,3.16,4.71q20.4-.18,40.81,0c3.85,0,4-1.7,3-4.71Zm-5.89,45H220.8l-.83,1.56c1.3.91,2.6,2.6,3.91,2.62,13.67.2,27.33.07,41,.16C268.19,214.56,269,213.22,268.06,210.2Zm-46.62-42.15.44,1.31H268.2v-4.31c-13.83,0-27.41-.12-41,.14C225.27,165.22,223.36,167.05,221.44,168.05Zm45.46,20.67.57-1.64c-2.66-1-5.3-2.71-8-2.78-11.64-.31-23.3-.05-35-.18-3.71,0-4.87,1.17-3.44,4.6Zm-47,30.46,1.24,1.78c13.41,0,26.83.13,40.24-.16,2,0,3.91-2.11,5.87-3.25l-.75-1.38c-14.27,0-28.54-.07-42.81.13C222.4,216.32,221.15,218.18,219.89,219.18ZM155.43,210c-1.13,3.52,0,4.58,3.19,4.55q18.4-.18,36.81,0c3.63,0,4.15-1.47,3.06-4.54Zm172.5,6.42-.86,1.59c2.31,1,4.61,2.78,6.95,2.85,10.77.3,21.57.3,32.34,0,2.3-.07,4.55-1.9,6.82-2.92l-.67-1.51Zm-171.36,0-.64,1.54c2.07,1,4.12,2.87,6.22,2.92,12.11.28,24.24.13,36.75.13l-.2-4.59Zm-1.3-25.69v4.54H167l-.29-4.54Zm182.65.18c-11.62-1.1-11.8-1-11.24,4.31h11.24Zm-45.11,4.24H304.1c-.08-1.66-.14-2.92-.2-4.13C293.41,189.47,292,190,292.81,195.11Zm-77.33.15c.11-5.27-1.21-5.71-11.33-4.3v4.3ZM220.2,178c.58,1.85.9,4.17,1.38,4.2a58.93,58.93,0,0,0,10.2-.28c.33,0,.41-2.42.64-3.92ZM257,197.1v4.43h11.42c-.08-1.66-.14-3-.21-4.43Zm11.68,10.84c-.42-1.64-.67-4-1.09-4a58,58,0,0,0-10.21.1c-.38,0-.53,2.39-.84,3.9ZM155.28,182.28h11.34V178H155.28Zm0,19.22h11.4v-4.3h-11.4Zm48.89-4.28c-.14,5-.14,4.82,8,4.68,3.57-.06,4.23-1.47,3.21-4.68Zm134.4-8.45c-.66-1.8-1-4.23-1.67-4.29a43.32,43.32,0,0,0-9.79.17c-.44,0-.58,2.59-.89,4.12Zm-46.16,8.42c.05,5,.76,5.17,8.78,4.7,3.89-.23,3-2.32,2.72-4.7Zm34.17,0c-.24,4.77-.24,4.64,7.44,4.67,3.44,0,5-.84,3.68-4.67ZM167,175.93l-.39-4.18H155c.13,1.62.24,2.95.35,4.18Zm-11.72,32h11.62c-.08-1.54-.15-2.85-.23-4.24H155.27ZM337.9,165.29H326.54c-.22,5,2.41,5.86,11.36,3.86Zm-45.23,23.46h11.1c.27-4.65.27-4.6-6.86-4.61C293.87,184.14,291,184.06,292.67,188.75Zm-88.9-23.56c.37,7.75,5.92,3.94,9,4.51,3.7.68,3.19-2,2.57-4.51Zm-37,.09H154.89l.55,4.23h11.3Zm49.79,23.52c-1-2-1.45-4.25-2.2-4.34a86.51,86.51,0,0,0-10.2-.18v4.52Zm0,32c-1-2-1.45-4.25-2.2-4.34a86.51,86.51,0,0,0-10.2-.18v4.52Zm-61.31-32H167l-.36-4.32H155.22Zm137.33,32h11.52c-.09-1.58-.17-2.93-.25-4.2C292.86,215.34,292.31,215.54,292.55,220.79Zm11.31-16.7c-9.71-1.81-11.8-1.1-11,3.87h11Zm34-.23c-11.62-1.07-11.95-.94-11,4.08h11Zm-45.66-25.79c-.06,7.33,5.28,3.64,8.07,4.33,3.09.75,4.7-.7,3.35-4.33Zm-88.12,4.08c11.66,1,12,.92,10.94-4.08H204.11Zm133.75-10.06c-9.71-1.81-11.8-1.1-11,3.87h11Zm-133.69,38c-1.31,6,3.07,4.31,5.64,4.3s6.94,1.72,5.69-4.3Zm0-2.29h11.48c.93-6.15-3.51-4.15-6.05-4.22S202.87,202,204.14,207.82Zm87.73,2.29c.56,1.67.9,3.94,1.4,4a59.6,59.6,0,0,0,10.26-.22c.29,0,.36-2.41.53-3.76Zm46-31.94H326.42c-1.05,6.27,3.5,4.13,6,4.23S339.12,184.05,337.86,178.17Zm-122-2.21c-.42-7.51-5.8-3.65-8.78-4.34-3.49-.8-3.52,1.61-2.9,4.34Z" transform="translate(-1.02 -25.06)"/><path d="M369.48,202.65l.66-.71-.2.14c3.47.25,5.43-.75,3.81-5.13h-5.81l.1.1,6-2.08c.06-.91.17-2.56.32-4.72H366l0-1h8.46c-.71-8.7-7.93-3-10.63-5.79,2.8-2.78,9.92,3,10.78-5.45H360.41c-1.08-8.41-2.21-17.23-3.34-26l-.15.14h15.92c0-4.57,0-8.22,0-11.86q.09-27.18.2-54.34l-.1.14c1.58-2.06,3.16-4.12,5.43-7.1v72.67H407V72.18h6v79.47h28v-5.22c0-28.16-.06-56.32.07-84.49,0-3.6-.58-6.52-3.61-8.67a12.5,12.5,0,0,1-1.42-1.4c-5-5-9.23-11.4-18.2-8.56,35.9-24.73,106.32-28,151.78,24.71S606.88,200.92,551.68,243C495,286.1,419.75,270,382.87,221.32l7.8-.54c.11-1.33.23-2.73.4-4.69-6.75.19-13.68,1.19-17.24-6.22l.13.14c.69-3.83,1.1-7.49-4.56-7.4Zm136.94,5.24c11.3-21.2,16.08-43.59,13.91-67.48-2.13-23.5-9.74-45.15-21.05-65.71C509.54,118.72,514.31,163,506.42,207.89ZM493.05,221c11.28-38.77-8.7-72.54-31.44-87.05C484.56,158.4,491.43,188.67,493.05,221ZM557.64,83.07c-21.18,5.61-30.94,49-30.88,73.54C534.3,131.19,542.76,106.15,557.64,83.07Zm-85,15.73c9.43,22.88,18.17,46,22.88,70.4C501,141.48,487.93,119.77,472.65,98.8ZM526,205.51c5.9-17.55,12.07-35.89,18.24-54.22C529.37,161.63,521.14,186.91,526,205.51Zm10.4,2.84L553,177.28C541.43,179.92,534.08,193.84,536.4,208.35ZM413.27,195.51H440c-.13-1.91-.24-3.45-.37-5.35-6.92,0-13.4.25-19.85-.09C415.82,189.87,413.94,191.42,413.27,195.51ZM379,190.17c.1,2.15.17,3.71.24,5.22h25.95l.75-1.48c-1.76-1.25-3.46-3.46-5.28-3.57C393.73,189.92,386.75,190.17,379,190.17Zm43,13.25H396.43c.32,3.62,1.89,5.18,5.46,5,5-.22,10-.19,14.95,0C420.13,208.56,421.77,207.28,422,203.42Zm-5.49-14.67h23.42c-.1-1.64-.18-3-.28-4.72-6.13,0-11.89.21-17.64-.07C418.41,183.78,416.9,185.31,416.5,188.75ZM378.91,184c.19,2,.32,3.4.45,4.75H402l.79-1.09c-1.6-1.22-3.12-3.38-4.79-3.49C391.91,183.78,385.78,184,378.91,184Zm40.63-1.21c5.65,0,11.1-.14,16.54,0,3.9.14,4.49-1.58,3.29-5.27-4.79,0-9.58.17-14.35-.05C421.42,177.39,420,179.05,419.54,182.83Zm-21.13-.18,1-1.08c-1.16-1.29-2.25-3.62-3.51-3.71-5.52-.41-11.09-.18-17-.18.15,2,.25,3.43.37,5Zm21.22,27.24H399.48c.54,3.46,2,5.73,5.58,4.89C409.74,213.69,416.13,218.08,419.63,209.89ZM422.77,176h18.74c-1.93-2.34-2.77-4.41-4-4.65C429.06,169.63,424.36,171.14,422.77,176Zm-43.49.12h16.48c-1.61-5.54-4.87-6.36-16.48-4.34Zm46,20.54c-4.95,2.3-12-3.53-15.27,5C425.37,202.43,424.37,202.46,425.24,196.63Zm-16.76,6c-1.9-6.44-3.28-6.81-15.5-5.11C396.14,205.75,403.06,200.11,408.48,202.61Zm16.94-32.9h14.24v-5.12C434.93,166.75,428.49,161.41,425.42,169.71Zm-46.14,0h13.43c-1.6-5.48-2.53-5.76-13.43-4.26Zm23.42,46.44c.57,6.93,5.59,4.39,9,4.77s3.88-2,4.06-4.77Zm25.22,4.6h11.73v-4.27C428.78,215.06,427.82,215.39,427.92,220.78Zm0-23.57c0,5.38,1.2,5.78,11.77,4.24v-4.24Zm-37.11,6.19H379.42v4.67h11.37Zm-.08-6.13H379c.11,1.66.19,3,.28,4.49h11.41ZM374.8,176.19c-.72-2.08-1.09-4.63-1.69-4.68a48.43,48.43,0,0,0-10.28.25c-.42.05-.52,2.7-.82,4.43Zm64.93,27.51c-11.06-1.62-12.48-1.06-11.32,4.37h11.32Zm-77.66-38.54.27,4.39c11.64,1.32,12.41,1,11.24-4.39Zm28.64,44.78H379.05c.09,1.74.16,3.13.25,4.65h11.41Zm36.6-.11c.62,2,.95,4.57,1.51,4.63a49.18,49.18,0,0,0,10.29-.17c.44,0,.58-2.68.92-4.46Z" transform="translate(-1.02 -25.06)"/><path d="M259.83,151.7c-1.45.13-2.41.28-3.36.29-8,0-15.93,0-24.4,0V117.13H212.28v34.49H184.43V43.74c1.87-.08,3.66-.23,5.44-.24,17.16,0,34.32.08,51.48-.08,3.46,0,5.65,1.47,8.31,3.42,8.5,6.21,10.47,14.16,10.57,24.44.11,11.36-1.88,20.48-11.75,26.89-.8.52-1.32,1.46-2.71,3,3,2.66,5.81,5.57,9,7.86,4.31,3.07,5.31,7,5.14,12C259.58,131.22,259.83,141.35,259.83,151.7Zm-28-79.49H212.28v6.31h19.53Z" transform="translate(-1.02 -25.06)"/><path d="M178,97.84c0,12.16.15,24.32-.13,36.47-.05,2.33-1.42,4.86-2.78,6.89-6.12,9.11-14.63,12.09-25.59,11-9.73-1-19.63,0-29.45-.32a13.08,13.08,0,0,1-6.49-2.59c-9.08-6.27-12-14.66-11.37-25.93,1.07-20.26.41-40.62.22-60.94,0-4,1.53-6.58,3.92-9.62,6-7.65,13.24-10.32,22.91-9.5,10.25.86,20.64,0,30.95.32,2.36.07,4.89,1.43,7,2.78,9.27,6,12.2,14.56,11,25.48C177.27,80.45,178,89.18,178,97.84Zm-27.51,25.71V72.26H130.18v51.29Z" transform="translate(-1.02 -25.06)"/><path d="M341,43.49V71.73H294.45v12h34.73V112h-34.7v11.67h46.28V152h-4.64c-17.5,0-35,.12-52.47-.14-2.46,0-5.13-1.56-7.29-3-8.85-5.92-11.06-14.21-10.62-24.77.88-20.79.34-41.64.18-62.46,0-3.45,1.37-5.65,3.38-8.3,6.23-8.22,14-10.63,24.19-10.06C309.08,44.14,324.75,43.49,341,43.49Z" transform="translate(-1.02 -25.06)"/><path d="M94.58,123.42v28.29c-1.61.1-3,.28-4.5.28-17.66,0-35.32.13-53-.13-2.46,0-5.13-1.57-7.3-3C20.9,142.92,18.9,134.53,19.24,124c.79-24.63.25-49.3.25-73.95V43.83H47.72v79.59Z" transform="translate(-1.02 -25.06)"/><path d="M357.07,151.93H345.45v-108h66.68L379,75l-.56-2.87h-5.52V86l.1-.14c-10.88,20.73-16.88,42.64-16.12,66.2Z" transform="translate(-1.02 -25.06)"/><path d="M221.56,190.93a39,39,0,0,1,4-.42c12.78,0,25.57-.09,38.35.09,1.51,0,4.14,1.29,4.3,2.3.61,3.67-2.57,2.55-4.43,2.56q-16.68.14-33.38,0C227,195.46,223.41,195.36,221.56,190.93Z" transform="translate(-1.02 -25.06)"/><path d="M320.92,176.06H274.2c-1.37-3.09-.8-4.61,2.89-4.59q20.42.1,40.83,0C321.16,171.44,322.13,172.63,320.92,176.06Z" transform="translate(-1.02 -25.06)"/><path d="M220,174.23c1.31-.91,2.61-2.59,3.93-2.61q20.66-.28,41.32,0c1.29,0,2.55,1.77,3.82,2.71l-.88,1.49h-47Z" transform="translate(-1.02 -25.06)"/><path d="M274,165.17h47c1,3,.83,4.74-3,4.71q-20.4-.18-40.81,0C273.79,169.91,273,168.59,274,165.17Z" transform="translate(-1.02 -25.06)"/><path d="M268.06,210.2c.91,3,.13,4.36-3.18,4.34-13.67-.09-27.33,0-41-.16-1.31,0-2.61-1.71-3.91-2.62l.83-1.56Z" transform="translate(-1.02 -25.06)"/><path d="M373.83,209.87c.06,1.41.13,2.82.21,4.62-15.34,0-30.12.08-44.89-.13-1.18,0-2.33-2-3.49-3l1-1.31H374Z" transform="translate(-1.02 -25.06)"/><path d="M221.44,168.05c1.92-1,3.83-2.83,5.77-2.86,13.58-.26,27.16-.14,41-.14v4.31H221.88Z" transform="translate(-1.02 -25.06)"/><path d="M266.9,188.72H221.09c-1.43-3.43-.27-4.64,3.44-4.6,11.65.13,23.31-.13,35,.18,2.69.07,5.33,1.81,8,2.78Z" transform="translate(-1.02 -25.06)"/><path d="M219.89,219.18c1.26-1,2.51-2.86,3.79-2.88,14.27-.2,28.54-.13,42.81-.13l.75,1.38c-2,1.14-3.89,3.21-5.87,3.25-13.41.29-26.83.16-40.24.16Z" transform="translate(-1.02 -25.06)"/><path d="M155.43,210h43.06c1.09,3.07.57,4.58-3.06,4.54q-18.41-.16-36.81,0C155.45,214.58,154.3,213.52,155.43,210Z" transform="translate(-1.02 -25.06)"/><path d="M327.93,216.42h44.58l.67,1.51c-2.27,1-4.52,2.85-6.82,2.92-10.77.31-21.57.31-32.34,0-2.34-.07-4.64-1.85-6.95-2.85Z" transform="translate(-1.02 -25.06)"/><path d="M156.57,216.38H198.7l.2,4.59c-12.51,0-24.64.15-36.75-.13-2.1-.05-4.15-1.9-6.22-2.92Z" transform="translate(-1.02 -25.06)"/><path d="M155.27,190.69h11.42l.29,4.54H155.27Z" transform="translate(-1.02 -25.06)"/><path d="M337.92,190.87v4.31H326.68C326.12,189.84,326.3,189.77,337.92,190.87Z" transform="translate(-1.02 -25.06)"/><path d="M292.81,195.11c-.84-5.1.6-5.64,11.09-4.13.06,1.21.12,2.47.2,4.13Z" transform="translate(-1.02 -25.06)"/><path d="M215.48,195.26H204.15V191C214.27,189.55,215.59,190,215.48,195.26Z" transform="translate(-1.02 -25.06)"/><path d="M220.2,178h12.22c-.23,1.5-.31,3.88-.64,3.92a58.93,58.93,0,0,1-10.2.28C221.1,182.12,220.78,179.8,220.2,178Z" transform="translate(-1.02 -25.06)"/><path d="M257,197.1h11.21c.07,1.42.13,2.77.21,4.43H257Z" transform="translate(-1.02 -25.06)"/><path d="M268.63,207.94H256.49c.31-1.51.46-3.87.84-3.9a58,58,0,0,1,10.21-.1C268,204,268.21,206.3,268.63,207.94Z" transform="translate(-1.02 -25.06)"/><path d="M155.28,182.28V178h11.34v4.25Z" transform="translate(-1.02 -25.06)"/><path d="M155.26,201.5v-4.3h11.4v4.3Z" transform="translate(-1.02 -25.06)"/><path d="M204.15,197.22h11.23c1,3.21.36,4.62-3.21,4.68C204,202,204,202.18,204.15,197.22Z" transform="translate(-1.02 -25.06)"/><path d="M338.55,188.77H326.2c.31-1.53.45-4.07.89-4.12a43.32,43.32,0,0,1,9.79-.17C337.51,184.54,337.89,187,338.55,188.77Z" transform="translate(-1.02 -25.06)"/><path d="M292.39,197.19h11.5c.24,2.38,1.17,4.47-2.72,4.7C293.15,202.36,292.44,202.17,292.39,197.19Z" transform="translate(-1.02 -25.06)"/><path d="M326.56,197.22h11.12c1.34,3.83-.24,4.69-3.68,4.67C326.32,201.86,326.32,202,326.56,197.22Z" transform="translate(-1.02 -25.06)"/><path d="M167,175.93H155.36c-.11-1.23-.22-2.56-.35-4.18H166.6Z" transform="translate(-1.02 -25.06)"/><path d="M155.27,208v-4.24h11.39c.08,1.39.15,2.7.23,4.24Z" transform="translate(-1.02 -25.06)"/><path d="M337.9,165.29v3.86c-8.95,2-11.58,1.16-11.36-3.86Z" transform="translate(-1.02 -25.06)"/><path d="M292.67,188.75c-1.65-4.69,1.2-4.61,4.24-4.61,7.13,0,7.13,0,6.86,4.61Z" transform="translate(-1.02 -25.06)"/><path d="M203.77,165.19h11.61c.62,2.54,1.13,5.19-2.57,4.51C209.69,169.13,204.14,172.94,203.77,165.19Z" transform="translate(-1.02 -25.06)"/><path d="M166.74,165.28v4.23h-11.3l-.55-4.23Z" transform="translate(-1.02 -25.06)"/><path d="M216.53,188.8h-12.4v-4.52a86.51,86.51,0,0,1,10.2.18C215.08,184.55,215.57,186.82,216.53,188.8Z" transform="translate(-1.02 -25.06)"/><path d="M216.53,220.8h-12.4v-4.52a86.51,86.51,0,0,1,10.2.18C215.08,216.55,215.57,218.82,216.53,220.8Z" transform="translate(-1.02 -25.06)"/><path d="M155.22,188.77v-4.32h11.41l.36,4.32Z" transform="translate(-1.02 -25.06)"/><path d="M292.55,220.79c-.24-5.25.31-5.45,11.27-4.2.08,1.27.16,2.62.25,4.2Z" transform="translate(-1.02 -25.06)"/><path d="M303.86,204.09V208h-11C292.06,203,294.15,202.28,303.86,204.09Z" transform="translate(-1.02 -25.06)"/><path d="M337.89,203.86v4.08h-11C325.94,202.92,326.27,202.79,337.89,203.86Z" transform="translate(-1.02 -25.06)"/><path d="M292.23,178.07h11.42c1.35,3.63-.26,5.08-3.35,4.33C297.51,181.71,292.17,185.4,292.23,178.07Z" transform="translate(-1.02 -25.06)"/><path d="M204.11,182.15v-4.08h10.94C216.09,183.07,215.77,183.19,204.11,182.15Z" transform="translate(-1.02 -25.06)"/><path d="M337.86,172.09V176h-11C326.06,171,328.15,170.28,337.86,172.09Z" transform="translate(-1.02 -25.06)"/><path d="M204.17,210.11H215.5c1.25,6-3.15,4.28-5.69,4.3S202.86,216.09,204.17,210.11Z" transform="translate(-1.02 -25.06)"/><path d="M204.14,207.82c-1.27-5.86,2.93-4.3,5.43-4.22s7-1.93,6.05,4.22Z" transform="translate(-1.02 -25.06)"/><path d="M291.87,210.11h12.19c-.17,1.35-.24,3.74-.53,3.76a59.6,59.6,0,0,1-10.26.22C292.77,214.05,292.43,211.78,291.87,210.11Z" transform="translate(-1.02 -25.06)"/><path d="M337.86,178.17c1.26,5.88-2.95,4.33-5.43,4.23s-7.06,2-6-4.23Z" transform="translate(-1.02 -25.06)"/><path d="M215.88,176H204.2c-.62-2.73-.59-5.14,2.9-4.34C210.08,172.31,215.46,168.45,215.88,176Z" transform="translate(-1.02 -25.06)"/><path d="M369.4,202.61l4.31,5.28c-2.41.14-3.69.25-5,.27-2,0-3.92,0-6.06,0-.8-2.86-.89-4.73,2.68-4.71a20.8,20.8,0,0,0,4.13-.81Z" transform="translate(-1.02 -25.06)"/><path d="M370.14,201.94a38.09,38.09,0,0,0-4.4-.08c-3.24.28-4.12-1.21-3.15-4.81H368l-.1-.1,2,5.13Z" transform="translate(-1.02 -25.06)"/><path class="cls-1" d="M506.42,207.89c7.89-44.93,3.12-89.17-7.14-133.19,11.31,20.56,18.92,42.21,21.05,65.71C522.5,164.3,517.72,186.69,506.42,207.89Z" transform="translate(-1.02 -25.06)"/><path class="cls-1" d="M356.92,152.07c-.76-23.56,5.24-45.47,16.12-66.2q-.1,27.16-.2,54.34c0,3.64,0,7.29,0,11.86Z" transform="translate(-1.02 -25.06)"/><path class="cls-1" d="M493.05,221c-1.62-32.32-8.49-62.59-31.44-87.05C484.35,148.45,504.33,182.22,493.05,221Z" transform="translate(-1.02 -25.06)"/><path class="cls-1" d="M557.64,83.07c-14.88,23.08-23.34,48.12-30.88,73.54C526.7,132.11,536.46,88.68,557.64,83.07Z" transform="translate(-1.02 -25.06)"/><path class="cls-1" d="M472.65,98.8c15.28,21,28.31,42.68,22.88,70.4C490.82,144.78,482.08,121.68,472.65,98.8Z" transform="translate(-1.02 -25.06)"/><path class="cls-1" d="M526,205.51c-4.86-18.6,3.37-43.88,18.24-54.23Z" transform="translate(-1.02 -25.06)"/><path class="cls-1" d="M536.4,208.35c-2.32-14.51,5-28.43,16.57-31.07Z" transform="translate(-1.02 -25.06)"/><path class="cls-1" d="M413.27,195.51c.67-4.09,2.55-5.64,6.5-5.44,6.45.34,12.93.09,19.85.09.13,1.9.24,3.44.37,5.35Z" transform="translate(-1.02 -25.06)"/><path class="cls-1" d="M379,190.17c7.75,0,14.73-.25,21.66.17,1.82.11,3.52,2.32,5.28,3.57l-.75,1.48H379.24C379.17,193.88,379.1,192.32,379,190.17Z" transform="translate(-1.02 -25.06)"/><path class="cls-1" d="M422,203.42c-.22,3.86-1.86,5.14-5.15,5-5-.19-10-.22-14.95,0-3.57.16-5.14-1.4-5.46-5Z" transform="translate(-1.02 -25.06)"/><path class="cls-1" d="M416.5,188.75c.4-3.44,1.91-5,5.5-4.79,5.75.28,11.51.07,17.64.07.1,1.71.18,3.08.28,4.72Z" transform="translate(-1.02 -25.06)"/><path class="cls-1" d="M378.91,184c6.87,0,13-.26,19.09.17,1.67.11,3.19,2.27,4.79,3.49l-.79,1.09H379.36C379.23,187.44,379.1,186.06,378.91,184Z" transform="translate(-1.02 -25.06)"/><path class="cls-1" d="M419.54,182.83c.42-3.78,1.88-5.44,5.48-5.27,4.77.22,9.56.05,14.35.05,1.2,3.69.61,5.41-3.29,5.27C430.64,182.69,425.19,182.83,419.54,182.83Z" transform="translate(-1.02 -25.06)"/><path class="cls-1" d="M398.41,182.65H379.34c-.12-1.54-.22-2.92-.37-5,5.88,0,11.45-.23,17,.18,1.26.09,2.35,2.42,3.51,3.71Z" transform="translate(-1.02 -25.06)"/><path class="cls-1" d="M419.63,209.89c-3.5,8.19-9.89,3.8-14.57,4.89-3.59.84-5-1.43-5.58-4.89Z" transform="translate(-1.02 -25.06)"/><path class="cls-1" d="M422.77,176c1.59-4.83,6.29-6.34,14.76-4.65,1.21.24,2.05,2.31,4,4.65Z" transform="translate(-1.02 -25.06)"/><path class="cls-1" d="M379.28,176.09v-4.34c11.61-2,14.87-1.2,16.48,4.34Z" transform="translate(-1.02 -25.06)"/><path class="cls-1" d="M425.24,196.63c-.87,5.83.13,5.8-15.27,5C413.27,193.1,420.29,198.93,425.24,196.63Z" transform="translate(-1.02 -25.06)"/><path class="cls-1" d="M408.48,202.61c-5.42-2.5-12.34,3.14-15.5-5.11C405.2,195.8,406.58,196.17,408.48,202.61Z" transform="translate(-1.02 -25.06)"/><path class="cls-1" d="M425.42,169.71c3.07-8.3,9.51-3,14.24-5.12v5.12Z" transform="translate(-1.02 -25.06)"/><path class="cls-1" d="M379.28,169.74v-4.26c10.9-1.5,11.83-1.22,13.43,4.26Z" transform="translate(-1.02 -25.06)"/><path class="cls-1" d="M402.7,216.18h13.1c-.18,2.8-.66,5.16-4.06,4.77S403.27,223.11,402.7,216.18Z" transform="translate(-1.02 -25.06)"/><path class="cls-1" d="M427.92,220.78c-.1-5.39.86-5.72,11.73-4.27v4.27Z" transform="translate(-1.02 -25.06)"/><path class="cls-1" d="M427.9,197.21h11.77v4.24C429.1,203,427.87,202.59,427.9,197.21Z" transform="translate(-1.02 -25.06)"/><path class="cls-1" d="M390.79,203.4v4.67H379.42V203.4Z" transform="translate(-1.02 -25.06)"/><path class="cls-1" d="M390.71,197.27v4.49H379.3c-.09-1.46-.17-2.83-.28-4.49Z" transform="translate(-1.02 -25.06)"/><path class="cls-1" d="M374.8,176.19H362c.3-1.73.4-4.38.82-4.43a48.43,48.43,0,0,1,10.28-.25C373.71,171.56,374.08,174.11,374.8,176.19Z" transform="translate(-1.02 -25.06)"/><path class="cls-1" d="M439.73,203.7v4.37H428.41C427.25,202.64,428.67,202.08,439.73,203.7Z" transform="translate(-1.02 -25.06)"/><path class="cls-1" d="M362.07,165.16h11.51c1.17,5.41.4,5.71-11.24,4.39Z" transform="translate(-1.02 -25.06)"/><path class="cls-1" d="M390.71,209.94v4.65H379.3c-.09-1.52-.16-2.91-.25-4.65Z" transform="translate(-1.02 -25.06)"/><path class="cls-1" d="M427.31,209.83H440c-.34,1.78-.48,4.41-.92,4.46a49.18,49.18,0,0,1-10.29.17C428.26,214.4,427.93,211.84,427.31,209.83Z" transform="translate(-1.02 -25.06)"/><path class="cls-1" d="M369.94,202.08l-2-5.13h5.81C375.37,201.33,373.41,202.33,369.94,202.08Z" transform="translate(-1.02 -25.06)"/><path class="cls-1" d="M231.81,72.21v6.31H212.28V72.21Z" transform="translate(-1.02 -25.06)"/><path class="cls-1" d="M150.49,123.55H130.18V72.26h20.31Z" transform="translate(-1.02 -25.06)"/></svg>